<svg xmlns="http://www.w3.org/2000/svg" xmlns:xlink="http://www.w3.org/1999/xlink" viewBox="0 0 399.13 372.35"><defs><style>.cls-1{fill:#f4f4f4;}.cls-2{fill:url(#Degradado_sin_nombre_7);}.cls-3{fill:#3878ff;}.cls-4{fill:#f76d59;}.cls-5{fill:#1f1f89;}.cls-6{fill:#f7f5ef;}.cls-7{fill:#8e574a;}.cls-8{fill:none;stroke:#0a5de2;stroke-linecap:round;stroke-miterlimit:10;stroke-width:2px;opacity:0.5;}.cls-9{fill:#afc6f5;}.cls-10{fill:#0a5de2;}.cls-11{fill:#2b159b;}.cls-12{opacity:0.4;}.cls-13{fill:#d64536;}.cls-14{fill:url(#Degradado_sin_nombre_7-2);}.cls-15{fill:#bcccfd;}.cls-16{fill:url(#Degradado_sin_nombre_4);}.cls-17{fill:#80392e;}</style><linearGradient id="Degradado_sin_nombre_7" x1="46.68" y1="287.12" x2="45.14" y2="313.94" gradientTransform="matrix(-1, 0, 0, 1, 83.12, 0)" gradientUnits="userSpaceOnUse"><stop offset="0" stop-color="#241084"/><stop offset="0.99" stop-color="#0a5de2"/></linearGradient><linearGradient id="Degradado_sin_nombre_7-2" x1="250.16" y1="154.67" x2="245.79" y2="181.56" gradientTransform="matrix(1, 0, 0, 1, 0, 0)" xlink:href="#Degradado_sin_nombre_7"/><linearGradient id="Degradado_sin_nombre_4" x1="356.07" y1="291.04" x2="347.49" y2="312.5" gradientUnits="userSpaceOnUse"><stop offset="0" stop-color="#241084" stop-opacity="0.8"/><stop offset="0.99" stop-color="#0a5de2" stop-opacity="0"/></linearGradient></defs><title>Mobile app development</title><g id="Layer_2" data-name="Layer 2"><g id="OBJECTS"><polygon class="cls-1" points="44.2 233.31 43.1 242.57 36.58 259.51 42.55 261.35 47.14 243.68 47.74 233.72 44.2 233.31"/><polygon class="cls-2" points="30.25 278.1 33.17 307.58 32.2 333.49 42.24 333.49 42.78 331.56 35.89 330.65 39.56 307.7 42.88 279.17 30.25 278.1"/><polygon class="cls-3" points="26.93 277.77 24.65 302.88 9.28 323.3 11.11 332.94 15.7 332.94 12.95 330.88 12.49 324.68 27.18 308.16 40.48 278.56 26.93 277.77"/><polygon class="cls-4" points="47.74 233.72 47.56 224.38 45.68 224.15 44.2 233.31 47.74 233.72"/><path class="cls-4" d="M29.48,246.66c-.69,3.39-.73,8.58,4.37,9.4a7.39,7.39,0,0,0,8.84-5.78c.74-3.38-.51-7.74-5.74-8.41C33.51,241.42,30,243.94,29.48,246.66Z"/><path class="cls-5" d="M33.14,255.83c-3.63-1-5-4.49-4.49-8a7.13,7.13,0,0,1,8.3-5.93,3.93,3.93,0,0,1,.58.19,3.33,3.33,0,0,1-.11,1.49,5.91,5.91,0,0,1-3.76,3.59S32.59,254.73,33.14,255.83Z"/><path class="cls-4" d="M32.72,247.72a2.39,2.39,0,0,0-1.5.3c-1.47.8-1,3,.34,3.71a3.84,3.84,0,0,0,1.37.38,2,2,0,0,0,1.2-.19,1.46,1.46,0,0,0,.63-1,3,3,0,0,0,0-1.19A2.75,2.75,0,0,0,32.72,247.72Z"/><path class="cls-6" d="M38.3,245.66a2.17,2.17,0,0,0,2.54,1.62,2.5,2.5,0,0,0-1.68-4.5A2.17,2.17,0,0,0,38.3,245.66Z"/><path class="cls-7" d="M44.62,223.09A2.12,2.12,0,1,0,46.74,221,2.11,2.11,0,0,0,44.62,223.09Z"/><path class="cls-6" d="M54.55,237.26l-3.21,1.06a25.5,25.5,0,0,1-6.34,10l-6,5.83-7.39,5-5.49,20.36,17.17,1.62.57-22.43,6.37-8a25.6,25.6,0,0,0,5.17-11.27Z"/><rect class="cls-6" x="31.36" y="186.51" width="38.73" height="38.73" rx="7.4"/><path class="cls-4" d="M55.18,224.5a2.11,2.11,0,1,0,2.11-2.11A2.11,2.11,0,0,0,55.18,224.5Z"/><polygon class="cls-4" points="51.01 239.44 55.23 240.94 58.62 225.47 56.2 224.92 51.01 239.44"/><path class="cls-4" d="M60.1,201c0,5.43-9.82,19.83-9.82,19.83s-9.82-14.4-9.82-19.83a9.82,9.82,0,0,1,19.64,0Z"/><path class="cls-6" d="M55,200.22a4.71,4.71,0,1,1-4.71-4.71A4.7,4.7,0,0,1,55,200.22Z"/><line class="cls-8" x1="1" y1="333.3" x2="77" y2="333.3"/><rect class="cls-6" x="146.42" y="46.3" width="101.16" height="218" rx="8.59"/><path class="cls-5" d="M239,46.3H155a8.6,8.6,0,0,0-8.59,8.59v8.7H247.58v-8.7A8.6,8.6,0,0,0,239,46.3Z"/><path class="cls-5" d="M146.42,244.76v11A8.59,8.59,0,0,0,155,264.3h84a8.59,8.59,0,0,0,8.59-8.59v-11Z"/><rect class="cls-4" x="200.36" y="69.51" width="38.73" height="38.73" rx="7.4"/><rect class="cls-9" x="200.36" y="187.03" width="38.73" height="38.73" rx="7.4"/><rect class="cls-4" x="154.61" y="187.03" width="38.73" height="38.73" rx="7.4"/><line class="cls-8" x1="146.01" y1="265.29" x2="255.01" y2="265.29"/><rect class="cls-5" x="278.96" y="189.07" width="1" height="80.98" transform="translate(-33.86 48.93) rotate(-9.44)"/><rect class="cls-5" x="254.58" y="189.07" width="1" height="80.98" transform="translate(-34.19 44.93) rotate(-9.44)"/><rect class="cls-5" x="251.27" y="206.09" width="24.6" height="1"/><rect class="cls-5" x="253.01" y="216.76" width="24.6" height="1"/><rect class="cls-5" x="254.75" y="227.42" width="24.6" height="1"/><rect class="cls-5" x="256.5" y="238.09" width="24.6" height="1"/><rect class="cls-5" x="258.24" y="248.76" width="24.6" height="1"/><rect class="cls-5" x="259.98" y="259.42" width="24.6" height="1"/><rect class="cls-3" x="200.59" y="229.06" width="80.98" height="1" transform="translate(-24.92 429.7) rotate(-80.56)"/><rect class="cls-3" x="224.97" y="229.06" width="80.98" height="1" transform="translate(-4.56 453.74) rotate(-80.55)"/><rect class="cls-3" x="244.67" y="206.09" width="24.6" height="1"/><rect class="cls-3" x="242.93" y="216.76" width="24.6" height="1"/><rect class="cls-3" x="241.19" y="227.42" width="24.6" height="1"/><rect class="cls-3" x="239.45" y="238.09" width="24.6" height="1"/><rect class="cls-3" x="237.71" y="248.76" width="24.6" height="1"/><rect class="cls-3" x="235.96" y="259.42" width="24.6" height="1"/><rect class="cls-10" x="245.73" y="188.37" width="30" height="3"/><polygon class="cls-6" points="301.92 174.89 298.98 144.69 295.21 112.38 298.14 111.96 304.86 142.59 315.34 143.43 326.25 112.38 329.19 112.8 321.22 145.95 321.64 174.06 301.92 174.89"/><path class="cls-4" d="M305.65,133.63c-.79,2.89.46,7.54,3.35,8.33s6.34-2.57,7.14-5.46a5.44,5.44,0,0,0-10.49-2.87Z"/><path class="cls-11" d="M309.52,132a3,3,0,0,1-1.73-1.12,1,1,0,0,1-.07-.15,5.42,5.42,0,0,1,8.42,5.82,8.66,8.66,0,0,1-4.59,5.22,9.43,9.43,0,0,1,.33-1.73c.6-2.29,1.26-4.56,2-6.81A28.83,28.83,0,0,1,309.52,132Z"/><path class="cls-4" d="M312.9,136.38a1.42,1.42,0,0,1,1.38-.22.84.84,0,0,1,.28.18,1,1,0,0,1,.25.85,2.16,2.16,0,0,1-1.57,1.79,1.4,1.4,0,0,1-.7.08.91.91,0,0,1-.61-.35C311.43,138,312.34,136.79,312.9,136.38Z"/><polygon class="cls-3" points="321.64 174.06 318.73 220.39 315.52 220.39 312.8 174.43 309.94 174.55 308.19 221.52 305.71 221.46 301.92 174.89 301.36 169.16 321.57 169.42 321.64 174.06"/><polygon class="cls-3" points="318.73 220.39 325.77 221.16 325.52 222.26 315.2 222.26 315.52 220.39 318.73 220.39"/><polygon class="cls-3" points="308.19 221.52 308.19 222.84 298.51 223.2 298.51 221.99 305.71 221.46 308.19 221.52"/><path class="cls-11" d="M310.85,137.55c-1.77.19-3.17-1.58-4.93-1.81a.61.61,0,0,0-.33,0,.68.68,0,0,0-.27.33l-.67,1.3a5.68,5.68,0,0,0-.55,1.38,6.55,6.55,0,0,0,.43,3.14,3.41,3.41,0,0,0,1.89,1.61,5.88,5.88,0,0,0,2.5.26,4.52,4.52,0,0,0,1.67-.42,3.14,3.14,0,0,0,1.64-3.19,3.72,3.72,0,0,1-.11-.94,2.3,2.3,0,0,1,.34-.85c.17-.31,1.34-1.83.43-1.84-.28,0-.68.47-.92.61A2.83,2.83,0,0,1,310.85,137.55Z"/><g class="cls-12"><polygon class="cls-9" points="322.49 123.08 326.72 123.08 329.19 112.8 326.25 112.38 322.49 123.08"/><polygon class="cls-9" points="298.14 111.96 295.21 112.38 296.46 123.08 300.58 123.08 298.14 111.96"/></g><rect class="cls-3" x="263.39" y="79.3" width="115.19" height="31.94" rx="8.69"/><rect class="cls-6" x="260.5" y="79.3" width="115.19" height="31.94" rx="8.69"/><path class="cls-9" d="M368.4,103.86,363.71,99a8,8,0,1,0-6.1,2.84,7.82,7.82,0,0,0,4.56-1.44l4.73,4.92a1,1,0,0,0,.75.32,1,1,0,0,0,.72-.29,1,1,0,0,0,0-1.47ZM357.61,88a5.89,5.89,0,1,1-5.89,5.89A5.89,5.89,0,0,1,357.61,88Z"/><line class="cls-8" x1="270" y1="223.3" x2="374" y2="223.3"/><path class="cls-4" d="M298.82,110.7a2.52,2.52,0,1,1-2.52-2.51A2.52,2.52,0,0,1,298.82,110.7Z"/><path class="cls-4" d="M329.21,111.42a2.52,2.52,0,1,1-2.51-2.52A2.51,2.51,0,0,1,329.21,111.42Z"/><path class="cls-9" d="M206.48,118.81a2.76,2.76,0,1,1-3.56-1.58A2.76,2.76,0,0,1,206.48,118.81Z"/><rect class="cls-3" x="163.65" y="104.45" width="38.73" height="38.73" rx="7.4" transform="translate(29.42 282.67) rotate(-80.04)"/><path class="cls-3" d="M84.09,240.46h17.33a1,1,0,0,0,.92-.6,1,1,0,0,0-.19-1.08l-16.66-18L84,222.14l15.11,16.32h-15Z"/><polygon class="cls-13" points="205.85 119.11 213.29 122.02 234.92 124.07 227.7 129.16 212.5 125.51 204.73 121.95 205.85 119.11"/><path class="cls-9" d="M232,115.83a6.07,6.07,0,1,1-7.84-3.5A6.07,6.07,0,0,1,232,115.83Z"/><polygon class="cls-14" points="254.7 140.92 252.21 166.17 253.04 188.36 244.44 188.36 243.97 186.71 249.87 185.92 246.73 166.27 243.89 141.83 254.7 140.92"/><path class="cls-4" d="M202.39,121.73c3.17,1.29,13.81,4.12,17.22,3.85l7.14-.58,7.38-2,16.22,8-8.64,12-14.78-12.29-8.73-.39c-3.59-.16-13.77-4-16.86-5.87Z"/><path class="cls-5" d="M232.92,114.28c-1.26-2.86-6.34-3.55-9.16-2.22-.17.08-.32.19-.48.28a3.26,3.26,0,0,0,.4,1.3,5.34,5.34,0,0,0,4,2.39s.12.31.3.8a1.72,1.72,0,0,1,.64-.48,2.17,2.17,0,0,1,1.38,0c1.46.41,1.45,2.46.45,3.33a3.27,3.27,0,0,1-1.13.61l-.15,0c-.13,2,0,2.19.42,2.8C231.92,121.4,234.59,118.05,232.92,114.28Z"/><polygon class="cls-3" points="281.17 137.57 266.67 143.89 249.95 131.05 241.38 142.8 266.65 150.56 281.61 140.53 284.79 144.08 285.87 143.04 281.17 137.57"/><path class="cls-9" d="M203.28,121.64a2.76,2.76,0,1,1-3.56-1.59A2.77,2.77,0,0,1,203.28,121.64Z"/><path class="cls-3" d="M83.19,51.89h19.57V248.56H83.19Zm17.57,2H85.19V246.56h15.57Z"/><rect class="cls-6" x="80.51" y="238.03" width="24.92" height="17.86" transform="translate(185.95 493.92) rotate(180)"/><path class="cls-3" d="M84.09,166.55h17.33a1,1,0,0,0,.92-.6,1,1,0,0,0-.19-1.08l-16.66-18L84,148.23l15.11,16.32h-15Z"/><path class="cls-3" d="M84.09,185h17.33a1,1,0,0,0,.73-1.68l-16.66-18L84,166.71,99.13,183h-15Z"/><path class="cls-3" d="M84.09,203.51h17.33a1,1,0,0,0,.73-1.68l-16.66-18L84,185.19l15.11,16.32h-15Z"/><path class="cls-3" d="M84.09,222h17.33a1,1,0,0,0,.92-.6,1,1,0,0,0-.19-1.08l-16.66-18L84,203.66,99.13,220h-15Z"/><path class="cls-3" d="M84.09,148.52h17.33a1,1,0,0,0,.73-1.68l-16.66-18L84,130.2l15.11,16.32h-15Z"/><path class="cls-3" d="M84.09,130.45h17.33a1,1,0,0,0,.92-.6,1,1,0,0,0-.19-1.08l-16.66-18L84,112.13l15.11,16.32h-15Z"/><path class="cls-3" d="M84.09,112.42h17.33a1,1,0,0,0,.73-1.68l-16.66-18L84,94.1l15.11,16.32h-15Z"/><path class="cls-3" d="M84.09,94.38h17.33a1,1,0,0,0,.92-.6,1,1,0,0,0-.19-1.08l-16.66-18L84,76.06,99.13,92.38h-15Z"/><path class="cls-3" d="M84.09,76.35h17.33a1,1,0,0,0,.73-1.68l-16.66-18L84,58,99.13,74.35h-15Z"/><path class="cls-3" d="M84.09,58.31h17.33a1,1,0,0,0,.92-.6,1,1,0,0,0-.19-1.08l-16.66-18L84,40,99.13,56.31h-15Z"/><rect class="cls-5" x="83.23" y="31.93" width="31.72" height="26.74" transform="translate(198.17 90.6) rotate(180)"/><rect class="cls-5" x="35.56" y="31.93" width="31.72" height="15.36" transform="translate(102.84 79.22) rotate(180)"/><path class="cls-3" d="M36.09,33.88H192.75a1,1,0,0,0,0-2H36.09a1,1,0,1,0,0,2Z"/><rect class="cls-3" x="184.47" y="37.55" width="1" height="65"/><rect class="cls-3" x="72.01" y="252.7" width="41.92" height="7.86" transform="translate(185.95 513.25) rotate(180)"/><path class="cls-3" d="M99,33.62a.52.52,0,0,0,.35-.14l8.36-8.36h76.58L192.12,33a.5.5,0,0,0,.7,0,.5.5,0,0,0,0-.71l-8.14-8.15H107.26l-8.64,8.65a.5.5,0,0,0,.35.85Z"/><path class="cls-3" d="M35.42,33.62a.49.49,0,0,0,.44-.26l8.36-16H64.5l7.86,15.47a.5.5,0,0,0,.67.22.51.51,0,0,0,.22-.67l-8.14-16H43.62L35,32.89a.5.5,0,0,0,.21.68A.46.46,0,0,0,35.42,33.62Z"/><path class="cls-6" d="M181.31,37.55A3.67,3.67,0,1,0,185,33.89,3.66,3.66,0,0,0,181.31,37.55Z"/><path class="cls-3" d="M163.3,25.12a.5.5,0,0,0,.14-1l-74-22.58a.56.56,0,0,0-.34,0L54,16.39a.5.5,0,1,0,.39.92L89.29,2.57l73.86,22.52A.4.4,0,0,0,163.3,25.12Z"/><path class="cls-3" d="M100.91,33.69a.92.92,0,0,0,.36-.07,1,1,0,0,0,.57-1.29L90.19,1.66a1,1,0,0,0-1-.64,1,1,0,0,0-.9.8l-6,29.91a1,1,0,1,0,2,.4L89.55,5.61,100,33.05A1,1,0,0,0,100.91,33.69Z"/><path class="cls-15" d="M87.24,2a2,2,0,1,0,2-2A2,2,0,0,0,87.24,2Z"/><path class="cls-3" d="M173.84,33.72a.51.51,0,0,0,.31-.11L184,25.67v7.42a.5.5,0,0,0,1,0V24.62a.5.5,0,0,0-.29-.45.49.49,0,0,0-.52.06l-10.64,8.6a.49.49,0,0,0-.07.7A.51.51,0,0,0,173.84,33.72Z"/><path class="cls-3" d="M164.34,33.72a.51.51,0,0,0,.31-.11l9.82-7.94v7.42a.5.5,0,0,0,.5.5.5.5,0,0,0,.5-.5V24.62a.5.5,0,0,0-.81-.39L164,32.83a.5.5,0,0,0-.08.7A.51.51,0,0,0,164.34,33.72Z"/><path class="cls-3" d="M154.84,33.72a.52.52,0,0,0,.32-.11L165,25.67v7.42a.5.5,0,0,0,1,0V24.62a.5.5,0,0,0-.29-.45.51.51,0,0,0-.53.06l-10.63,8.6a.49.49,0,0,0-.07.7A.49.49,0,0,0,154.84,33.72Z"/><path class="cls-3" d="M145.35,33.72a.51.51,0,0,0,.31-.11l9.82-7.94v7.42a.5.5,0,0,0,.5.5.5.5,0,0,0,.5-.5V24.62a.5.5,0,0,0-.81-.39L145,32.83a.5.5,0,0,0,.32.89Z"/><path class="cls-3" d="M135.85,33.72a.54.54,0,0,0,.32-.11L146,25.67v7.42a.5.5,0,0,0,.5.5.5.5,0,0,0,.5-.5V24.62a.5.5,0,0,0-.29-.45.51.51,0,0,0-.53.06l-10.63,8.6a.5.5,0,0,0,.31.89Z"/><path class="cls-3" d="M126.36,33.72a.51.51,0,0,0,.31-.11l9.82-7.94v7.42a.5.5,0,0,0,.5.5.5.5,0,0,0,.5-.5V24.62a.5.5,0,0,0-.81-.39L126,32.83a.5.5,0,0,0,.32.89Z"/><path class="cls-3" d="M116.86,33.72a.56.56,0,0,0,.32-.11L127,25.67v7.42a.5.5,0,0,0,.5.5.5.5,0,0,0,.5-.5V24.62a.5.5,0,0,0-.29-.45.51.51,0,0,0-.53.06l-10.63,8.6a.5.5,0,0,0-.08.7A.52.52,0,0,0,116.86,33.72Z"/><path class="cls-3" d="M107.37,33.72a.51.51,0,0,0,.31-.11l9.82-7.94v7.42a.5.5,0,0,0,.5.5.5.5,0,0,0,.5-.5V24.62a.5.5,0,0,0-.81-.39l-10.64,8.6a.5.5,0,0,0,.32.89Z"/><path class="cls-3" d="M51.23,33.72a.5.5,0,0,0,.39-.18l12.75-15v14.6a.5.5,0,0,0,.5.5.5.5,0,0,0,.5-.5v-16a.5.5,0,0,0-.33-.47.48.48,0,0,0-.55.14L50.85,32.9a.5.5,0,0,0,.38.82Z"/><path class="cls-3" d="M41.42,33.72a.48.48,0,0,0,.42-.23l9.72-14.7v14.3a.5.5,0,0,0,1,0v-16a.5.5,0,0,0-.92-.28L41,32.94a.51.51,0,0,0,.14.7A.53.53,0,0,0,41.42,33.72Z"/><path class="cls-5" d="M181.83,103.89a3.15,3.15,0,1,0,3.14-3.15A3.15,3.15,0,0,0,181.83,103.89Z"/><line class="cls-8" x1="54" y1="261.3" x2="130" y2="261.3"/><polygon class="cls-4" points="370.36 293.63 369.23 277.96 370.98 266.42 376.93 232.41 374.06 232 367.48 261.99 357.21 262.82 346.53 232.41 343.65 232.82 351.46 265.28 354.2 277.69 353.88 292.81 370.36 293.63"/><polygon class="cls-5" points="356.2 251.72 355.19 260.69 361.29 261.17 365.02 251.72 356.2 251.72"/><path class="cls-6" d="M367.46,255a6.17,6.17,0,1,1-6.17-6.16A6.16,6.16,0,0,1,367.46,255Z"/><rect class="cls-10" x="341.36" y="194.51" width="38.73" height="38.73" rx="7.4"/><path class="cls-5" d="M363.56,254.6a.47.47,0,0,0,.38.06c.13,0,.19-.18.27-.28a1,1,0,0,1,1.39,0,1.25,1.25,0,0,1,.16,1.46,1.78,1.78,0,0,1-1.29.82,11.65,11.65,0,0,0-.41,3.76l2.54.19a.69.69,0,0,0,.47-.08.64.64,0,0,0,.2-.41,20,20,0,0,0,.47-4.43,8.06,8.06,0,0,0-.92-4.19c-.89-1.48-4.56-3.92-6.35-2.55C358.49,250.41,362.19,253.94,363.56,254.6Z"/><path class="cls-5" d="M358.45,252.48a6,6,0,0,1-3.85,1.86,5.47,5.47,0,0,1,1.88-4.33c.7-.6,3-1.92,4-1.28S359.16,251.79,358.45,252.48Z"/><polygon class="cls-10" points="369.76 282.51 354.04 281.78 341.95 335.93 336.35 332.51 343.17 340.81 359.27 296.17 359.03 316.42 369.94 330.88 370.64 336.1 370.93 338.32 372.87 338.08 373.23 330.13 364.78 316.39 370.74 293.65 369.76 282.51"/><polygon class="cls-6" points="370.75 247.08 374.15 248.27 376.93 232.41 374.06 232 370.75 247.08"/><polygon class="cls-6" points="350.94 244.96 346.95 246.54 343.65 232.82 346.53 232.41 350.94 244.96"/><polygon class="cls-6" points="364.27 262.25 361.32 267.49 359.83 262.61 364.27 262.25"/><path class="cls-6" d="M342.36,230.77a2.47,2.47,0,1,0,2.47-2.47A2.47,2.47,0,0,0,342.36,230.77Z"/><path class="cls-6" d="M373.31,231.23a2.47,2.47,0,1,0,2.47-2.47A2.47,2.47,0,0,0,373.31,231.23Z"/><path class="cls-16" d="M354.84,308.45l3.8-10.53.36-3.34-5-12.8-5.25,23.52C351,306.5,353.23,307.63,354.84,308.45Z"/><path class="cls-6" d="M365.7,207.28a5.07,5.07,0,1,1-5.07-5.07A5.07,5.07,0,0,1,365.7,207.28Z"/><path class="cls-6" d="M370.6,222.66a9.71,9.71,0,0,0-19.42,0Z"/><line class="cls-8" x1="322.13" y1="339.8" x2="398.13" y2="339.8"/><line class="cls-8" x1="220.13" y1="269.3" x2="296.13" y2="269.3"/><rect class="cls-10" x="110.36" y="145.51" width="38.73" height="38.73" rx="7.4"/><polygon class="cls-6" points="119.63 247.1 116.72 217.1 112.97 185.02 115.88 184.6 122.55 215.02 132.96 215.85 143.8 185.02 146.71 185.44 138.8 218.35 139.21 246.27 119.63 247.1"/><path class="cls-4" d="M117.55,183.36a2.5,2.5,0,1,1-2.5-2.5A2.5,2.5,0,0,1,117.55,183.36Z"/><path class="cls-4" d="M146.71,184.19a2.5,2.5,0,1,1-2.5-2.5A2.5,2.5,0,0,1,146.71,184.19Z"/><path class="cls-4" d="M134.35,205.9a6.36,6.36,0,1,1-6.36-6.35A6.36,6.36,0,0,1,134.35,205.9Z"/><path class="cls-5" d="M134.35,206.9a6.36,6.36,0,1,1-6.36-6.35A6.36,6.36,0,0,1,134.35,206.9Z"/><polygon class="cls-3" points="139.21 246.27 136.32 292.28 133.14 292.28 130.44 246.64 127.59 246.76 125.86 293.4 123.4 293.35 119.63 247.1 119.08 241.4 139.14 241.66 139.21 246.27"/><polygon class="cls-3" points="136.32 292.28 143.32 293.05 143.07 294.13 132.82 294.13 133.14 292.28 136.32 292.28"/><polygon class="cls-3" points="125.86 293.4 125.86 294.71 116.24 295.07 116.24 293.87 123.4 293.35 125.86 293.4"/><line class="cls-8" x1="105.13" y1="294.8" x2="161.13" y2="294.8"/><path class="cls-17" d="M214.43,305.84a.85.85,0,0,1,0,.23s0,0,0,.06a1.34,1.34,0,0,1-.07.18.08.08,0,0,0,0,0l-.15.21,0,.05-.19.19,0,0a3.16,3.16,0,0,1-.27.2l-.09.05a2.07,2.07,0,0,1-.25.15l-.11.06-.31.15-.12.05-.5.19-17.05,5.91-.52.14c-.25.07-.49.15-.76.21s-.67.13-1,.18-.43.06-.65.09l-.81.08h-.16c-.44,0-.88.05-1.33.05h0c-.46,0-.93,0-1.38,0h0c-.46,0-.91-.07-1.35-.13h0c-.43-.06-.84-.14-1.23-.22h0a10.36,10.36,0,0,1-1.14-.32l-16.79-5.75-.27-.1-.23-.09-.23-.1-.21-.1-.17-.1-.19-.11-.14-.11-.16-.12-.12-.11-.11-.11-.11-.15-.06-.09,0-.12a.94.94,0,0,1-.08-.36l.06,7.51a.94.94,0,0,0,.08.36l0,.12.06.09.11.15.1.09.13.14.11.08.19.14.14.08a2.36,2.36,0,0,0,.23.13l.15.07.28.13.19.08.3.11h0l16.79,5.75a5.08,5.08,0,0,0,.59.18l.51.13H186l.4.08.45.08.38.06h.07l.44.05.45,0,.42,0h0l.47,0h1.48l.56,0h.22l.16,0,.32,0,.49-.06.65-.08.18,0,.73-.14.09,0c.28-.06.53-.14.78-.21l.4-.11.11,0,17.05-5.9c.17-.06.33-.12.48-.19h0l.12-.05.26-.12.05,0,.11-.06.15-.08.1-.07.09,0,.06,0,.2-.15h0l0,0,.13-.12.06-.07,0-.05,0,0,.11-.16v0l0,0,0-.1s0-.06,0-.08l0-.06v0a1.1,1.1,0,0,0,0-.18v0Z"/><path class="cls-4" d="M212.31,304.08c2.86,1,2.82,2.6-.09,3.6l-17.05,5.91a18.79,18.79,0,0,1-10.46,0l-16.79-5.75c-2.87-1-2.84-2.6.07-3.6l17-5.91a18.83,18.83,0,0,1,10.47,0Z"/><path class="cls-5" d="M280.53,299.41a.83.83,0,0,1,0,.22.14.14,0,0,1,0,.06,1.34,1.34,0,0,1-.07.18s0,0,0,0a1.37,1.37,0,0,1-.15.21l0,.05a1.8,1.8,0,0,1-.2.19l0,0a3.16,3.16,0,0,1-.27.2l-.08.06-.26.15-.11.05-.31.15-.12.06-.5.19-17.05,5.9-.51.14c-.25.08-.5.15-.77.21l-1,.19-.65.08-.81.08-.16,0c-.44,0-.88,0-1.33.05h0c-.46,0-.93,0-1.38,0h0c-.46,0-.91-.07-1.34-.13h0c-.42-.06-.84-.13-1.23-.22h0a11,11,0,0,1-1.14-.32L234,301.44l-.27-.1-.23-.09-.22-.1-.21-.1-.18-.1-.19-.11-.14-.11-.16-.11-.12-.12-.11-.11-.1-.15-.07-.09L232,300a.94.94,0,0,1-.08-.36l.06,7.51a.9.9,0,0,0,.08.36l.05.12.07.09a1.3,1.3,0,0,0,.1.15l.1.09.13.14.11.08.19.14.14.08.23.13a.69.69,0,0,0,.15.07l.28.13.19.08.3.11h0l16.79,5.75a5.08,5.08,0,0,0,.59.18l.51.13h.08l.4.08.46.08.37.06h.07l.45.05.44,0,.42,0h0l.47,0h1.48l.56,0h.22l.17,0,.31,0c.17,0,.33,0,.49-.06l.65-.08.19,0L260,315l.1,0c.27-.06.52-.13.77-.21s.28-.06.4-.11l.11,0,17.05-5.9.48-.18h0l.13-.06.25-.12.05,0,.11-.06.15-.08.11-.07.08-.06.06,0,.2-.16h0l0,0,.13-.11.07-.08s0,0,0,0l0,0a.91.91,0,0,0,.11-.16v0l0,0s0-.07,0-.1a.24.24,0,0,0,0-.08.14.14,0,0,0,0-.06v0a1.1,1.1,0,0,0,0-.18h0Z"/><path class="cls-3" d="M278.41,297.64c2.86,1,2.82,2.6-.09,3.61l-17.05,5.9a18.79,18.79,0,0,1-10.46,0L234,301.44c-2.87-1-2.84-2.6.07-3.6l17-5.9a18.77,18.77,0,0,1,10.48-.05Z"/></g><g id="DESIGNED_BY_FREEPIK" data-name="DESIGNED BY FREEPIK"><text/><text/></g></g></svg>