<svg xmlns="http://www.w3.org/2000/svg" xmlns:xlink="http://www.w3.org/1999/xlink" viewBox="0 0 460.91 356.29"><defs><style>.cls-1{isolation:isolate;}.cls-2{fill:#cfddf4;}.cls-13,.cls-2,.cls-28,.cls-29{mix-blend-mode:multiply;}.cls-3{fill:#4836f6;}.cls-4{fill:#7736f6;}.cls-5{fill:url(#linear-gradient);}.cls-6{fill:url(#linear-gradient-2);}.cls-7{fill:url(#linear-gradient-3);}.cls-8{fill:url(#linear-gradient-4);}.cls-9{fill:url(#linear-gradient-5);}.cls-10{fill:url(#linear-gradient-6);}.cls-11{fill:#f577b6;}.cls-12{fill:#fff;}.cls-13,.cls-23{fill:#001d47;}.cls-13{opacity:0.12;}.cls-14,.cls-29{fill:#e0e9f8;}.cls-15{fill:#ff9272;}.cls-16{fill:#cedfe7;}.cls-17{fill:#c2c9e9;}.cls-18{fill:#a4b5e9;}.cls-19{fill:url(#linear-gradient-7);}.cls-20,.cls-21,.cls-22,.cls-26{fill:none;stroke-linecap:round;stroke-linejoin:round;}.cls-20{stroke:#8daee6;}.cls-20,.cls-21,.cls-22{stroke-width:1.5px;}.cls-21{stroke:#e0e9f8;}.cls-22{stroke:#c2c9e9;}.cls-24{fill:url(#linear-gradient-8);}.cls-25{fill:#ffbca8;}.cls-26{stroke:#7736f6;stroke-width:0.8px;}.cls-27{fill:url(#linear-gradient-9);}.cls-30{fill:url(#linear-gradient-10);}.cls-31{fill:url(#linear-gradient-11);}.cls-32{fill:url(#linear-gradient-12);}.cls-33,.cls-34,.cls-35{fill:#cfe4e9;}.cls-34{opacity:0.6;}.cls-35{opacity:0.35;}.cls-36{fill:#042a37;}.cls-37{fill:#3427f6;}</style><linearGradient id="linear-gradient" x1="391.8" y1="52.98" x2="391.8" y2="24.86" gradientUnits="userSpaceOnUse"><stop offset="0" stop-color="#fff" stop-opacity="0.3"/><stop offset="0.05" stop-color="#fff" stop-opacity="0.35"/><stop offset="0.29" stop-color="#fff" stop-opacity="0.58"/><stop offset="0.52" stop-color="#fff" stop-opacity="0.76"/><stop offset="0.72" stop-color="#fff" stop-opacity="0.89"/><stop offset="0.89" stop-color="#fff" stop-opacity="0.97"/><stop offset="1" stop-color="#fff"/></linearGradient><linearGradient id="linear-gradient-2" x1="337.69" y1="19.8" x2="337.69" y2="0" xlink:href="#linear-gradient"/><linearGradient id="linear-gradient-3" x1="434.38" y1="15.6" x2="434.38" y2="4.2" xlink:href="#linear-gradient"/><linearGradient id="linear-gradient-4" x1="63.01" y1="37.91" x2="63.01" y2="15.87" xlink:href="#linear-gradient"/><linearGradient id="linear-gradient-5" x1="22.79" y1="16.57" x2="22.79" y2="1.05" xlink:href="#linear-gradient"/><linearGradient id="linear-gradient-6" x1="36.65" y1="55.7" x2="36.65" y2="46.76" xlink:href="#linear-gradient"/><linearGradient id="linear-gradient-7" x1="70" y1="148.8" x2="430" y2="148.8" gradientUnits="userSpaceOnUse"><stop offset="0" stop-color="#f577b6"/><stop offset="1" stop-color="#ff8262"/></linearGradient><linearGradient id="linear-gradient-8" x1="396.26" y1="328.22" x2="396.26" y2="285.07" xlink:href="#linear-gradient-7"/><linearGradient id="linear-gradient-9" x1="289.79" y1="348.11" x2="207.26" y2="348.11" gradientUnits="userSpaceOnUse"><stop offset="0" stop-color="#fff" stop-opacity="0.3"/><stop offset="1" stop-color="#fff"/></linearGradient><linearGradient id="linear-gradient-10" x1="326.98" y1="348.11" x2="244.45" y2="348.11" xlink:href="#linear-gradient-9"/><linearGradient id="linear-gradient-11" x1="205.06" y1="76" x2="205.06" y2="59.62" xlink:href="#linear-gradient-9"/><linearGradient id="linear-gradient-12" x1="190.49" y1="61.99" x2="190.49" y2="45.61" xlink:href="#linear-gradient-9"/></defs><title>Web development</title><g class="cls-1"><g id="Layer_2" data-name="Layer 2"><g id="OBJECTS"><path class="cls-2" d="M426.17,338.29H39.33a3.84,3.84,0,0,1-3.83-3.83h0a3.83,3.83,0,0,1,3.83-3.83H426.17a3.83,3.83,0,0,1,3.83,3.83h0A3.84,3.84,0,0,1,426.17,338.29Z"/><path class="cls-3" d="M426.7,179.78,426,162.53a38.52,38.52,0,0,0,16.47,1.13c-.19,1.24-.44,2.46-.72,3.68C434.15,165.64,429.94,172.68,426.7,179.78Z"/><path class="cls-4" d="M441.7,167.34A50.3,50.3,0,0,1,436,181.67l-8.56,14.45-.71-16.34C429.94,172.68,434.15,165.64,441.7,167.34Z"/><path class="cls-5" d="M460.71,51.25c-3.15-4.34-11.78-15.44-18.66-16.9-8.59-1.82-10.26,9.95-24.26-4.24-11.17-11.31-25.7-2.27-36.13,7.58a7.72,7.72,0,0,1-9.84.71c-6.34-4.59-13.72-7.07-19.69-1-9.56,9.68-10.7,1.65-16.56,2.89-4.7,1-10.58,8.57-12.73,11.53-.38.52.07,1.18.81,1.18H459.52C460.6,53,461.26,52,460.71,51.25Z"/><path class="cls-6" d="M375.37,18.58c-2.21-3.06-8.27-10.87-13.11-11.9-6-1.28-7.2,7-17-3-8.71-8.84-20.33,0-27.68,7.62-4.09,2.54-5.23-1.19-8.63-.47s-7.44,6-9,8.12c-.26.36.06.83.57.83h74C375.29,19.8,375.76,19.12,375.37,18.58Z"/><path class="cls-7" d="M456.1,14.9c-1.28-1.76-4.77-6.26-7.56-6.85-3.47-.74-4.15,4-9.82-1.72-5-5.1-11.71,0-16,4.39-2.35,1.46-3-.69-5-.27s-4.28,3.47-5.15,4.67c-.16.21,0,.48.32.48h42.64C456.05,15.6,456.32,15.21,456.1,14.9Z"/><path class="cls-8" d="M117,36.55c-2.47-3.4-9.23-12.09-14.63-13.24-6.73-1.43-8,7.8-19-3.32-8.75-8.87-20.15-1.79-28.32,5.94a6.05,6.05,0,0,1-7.71.55c-5-3.6-10.76-5.54-15.44-.8-7.49,7.59-8.38,1.29-13,2.27-3.68.78-8.3,6.71-10,9-.3.41.06.93.63.93h106.5C116.93,37.91,117.45,37.15,117,36.55Z"/><path class="cls-9" d="M45.46,15.62C43.73,13.22,39,7.1,35.19,6.29c-4.73-1-5.65,5.49-13.36-2.34C15-3,5.9,3.93.14,9.93L0,10v6.57H44.81C45.4,16.57,45.77,16,45.46,15.62Z"/><path class="cls-10" d="M53.67,55.15c-1-1.38-3.74-4.91-5.92-5.38-2.72-.57-3.26,3.17-7.7-1.34-3.93-4-9.18,0-12.5,3.44-1.84,1.15-2.36-.54-3.9-.21s-3.35,2.72-4,3.66c-.12.17,0,.38.26.38H53.29C53.63,55.7,53.84,55.39,53.67,55.15Z"/><rect class="cls-11" x="410.36" y="185.25" width="49.58" height="17.02" rx="3.5" transform="translate(870.31 387.52) rotate(180)"/><rect class="cls-12" x="444.79" y="188.63" width="11.89" height="10.49" rx="2.12" transform="translate(901.47 387.75) rotate(180)"/><path class="cls-13" d="M417.38,190.94h22a.87.87,0,1,1,0,1.73h-22a.87.87,0,0,1,0-1.73Z"/><path class="cls-13" d="M428.7,194.84h10.7a.87.87,0,0,1,0,1.74H428.7a.87.87,0,0,1,0-1.74Z"/><rect class="cls-12" x="410.36" y="208.83" width="49.58" height="17.02" rx="3.5" transform="translate(870.31 434.68) rotate(180)"/><rect class="cls-14" x="444.79" y="212.21" width="11.89" height="10.49" rx="2.12" transform="translate(901.47 434.92) rotate(180)"/><path class="cls-13" d="M417.38,214.52h22a.87.87,0,1,1,0,1.74h-22a.87.87,0,0,1,0-1.74Z"/><path class="cls-13" d="M428.7,218.43h10.7a.87.87,0,1,1,0,1.73H428.7a.87.87,0,0,1,0-1.73Z"/><rect class="cls-4" x="410.36" y="232.42" width="49.58" height="17.02" rx="3.5" transform="translate(870.31 481.85) rotate(180)"/><rect class="cls-12" x="444.79" y="235.8" width="11.89" height="10.49" rx="2.12" transform="translate(901.47 482.08) rotate(180)"/><path class="cls-13" d="M417.38,238.11h22a.87.87,0,1,1,0,1.73h-22a.87.87,0,0,1,0-1.73Z"/><path class="cls-13" d="M428.7,242h10.7a.87.87,0,1,1,0,1.73H428.7a.87.87,0,0,1,0-1.73Z"/><path class="cls-15" d="M66.21,259.4l17.05,12a3.46,3.46,0,0,1,1.21,4.16h0a3.46,3.46,0,0,1-4.85,1.72l-16.61-9Z"/><rect class="cls-16" x="70" y="81.8" width="360" height="244.66" rx="8"/><rect class="cls-12" x="349.5" y="179.3" width="67.86" height="45.5" rx="2.75"/><rect class="cls-14" x="355.12" y="203.13" width="56.61" height="14.59" rx="1.66"/><path class="cls-17" d="M403,184.17a1.2,1.2,0,1,1-1.19,1.2A1.2,1.2,0,0,1,403,184.17Z"/><path class="cls-17" d="M407.37,184.17a1.2,1.2,0,1,1-1.2,1.2A1.2,1.2,0,0,1,407.37,184.17Z"/><path class="cls-17" d="M411.73,184.17a1.2,1.2,0,1,1-1.19,1.2A1.2,1.2,0,0,1,411.73,184.17Z"/><circle class="cls-18" cx="360.02" cy="193.71" r="4.52"/><rect class="cls-14" x="369.16" y="190.8" width="42.19" height="5.67" rx="0.67"/><path class="cls-4" d="M430,101.8v-12a8,8,0,0,0-8-8H78a8,8,0,0,0-8,8v12Z"/><rect class="cls-19" x="70" y="128.3" width="360" height="41"/><rect class="cls-12" x="97.63" y="106.92" width="306.87" height="16.38" rx="4"/><line class="cls-20" x1="423.88" y1="110.11" x2="410.83" y2="110.11"/><line class="cls-20" x1="423.88" y1="115.11" x2="410.83" y2="115.11"/><line class="cls-20" x1="423.88" y1="120.11" x2="410.83" y2="120.11"/><path class="cls-20" d="M82.93,108.64,77,113a1.33,1.33,0,0,0-.35.89v7.2a.87.87,0,0,0,.86.86H81a.86.86,0,0,0,.85-.86v-4.57a2,2,0,0,1,1.64-2,1.92,1.92,0,0,1,2.2,1.9v4.71a.86.86,0,0,0,.85.86H90a.87.87,0,0,0,.86-.86v-7.2a1.33,1.33,0,0,0-.35-.89l-5.92-4.36A1.14,1.14,0,0,0,82.93,108.64Z"/><circle class="cls-21" cx="106.03" cy="114.79" r="4.02"/><line class="cls-21" x1="109.94" y1="119.44" x2="108.6" y2="117.89"/><rect class="cls-12" x="158.5" y="140.8" width="183" height="16" rx="2.25"/><path class="cls-14" d="M339.25,140.8H324v16h15.25a2.25,2.25,0,0,0,2.25-2.25v-11.5A2.25,2.25,0,0,0,339.25,140.8Z"/><circle class="cls-22" cx="332.75" cy="148.53" r="3.44"/><line class="cls-22" x1="336.09" y1="152.5" x2="334.95" y2="151.17"/><circle class="cls-4" cx="86.36" cy="185.37" r="4.52"/><rect class="cls-12" x="349.5" y="233.31" width="67.86" height="80.66" rx="2.75"/><rect class="cls-18" x="95.5" y="182.46" width="37" height="5.67" rx="0.67"/><rect class="cls-14" x="119.08" y="112.28" width="49.83" height="5.67" rx="0.67"/><circle class="cls-18" cx="86.36" cy="198.62" r="4.52"/><rect class="cls-18" x="95.5" y="195.71" width="37" height="5.67" rx="0.67"/><rect class="cls-11" x="81.84" y="211.8" width="25.33" height="2.83" rx="0.67"/><circle class="cls-12" cx="86.36" cy="225.12" r="4.52"/><rect class="cls-18" x="95.5" y="222.21" width="37" height="5.67" rx="0.67"/><circle class="cls-18" cx="86.36" cy="238.37" r="4.52"/><rect class="cls-18" x="95.5" y="235.46" width="37" height="5.67" rx="0.67"/><circle class="cls-18" cx="86.36" cy="251.62" r="4.52"/><rect class="cls-18" x="95.5" y="248.71" width="37" height="5.67" rx="0.67"/><circle class="cls-12" cx="86.36" cy="264.87" r="4.52"/><rect class="cls-18" x="95.5" y="261.96" width="37" height="5.67" rx="0.67"/><rect class="cls-11" x="81.84" y="278.05" width="25.33" height="2.83" rx="0.67"/><circle class="cls-18" cx="86.36" cy="291.37" r="4.52"/><rect class="cls-18" x="95.5" y="288.46" width="37" height="5.67" rx="0.67"/><circle class="cls-12" cx="86.36" cy="304.62" r="4.52"/><rect class="cls-18" x="95.5" y="301.71" width="37" height="5.67" rx="0.67"/><rect class="cls-12" x="144" y="179.3" width="199" height="63.5" rx="2.75"/><rect class="cls-14" x="150.17" y="185.3" width="49.83" height="5.67" rx="0.67"/><rect class="cls-14" x="150.17" y="231.02" width="185.81" height="5.67" rx="0.67"/><rect class="cls-14" x="206.17" y="185.3" width="49.83" height="5.67" rx="0.67"/><rect class="cls-14" x="262.17" y="185.3" width="49.83" height="5.67" rx="0.67"/><rect class="cls-16" x="150.17" y="202.05" width="161.83" height="20.17" rx="1.29"/><rect class="cls-12" x="144" y="250.47" width="199" height="63.5" rx="2.75"/><rect class="cls-14" x="150.17" y="256.47" width="49.83" height="5.67" rx="0.67"/><rect class="cls-14" x="150.17" y="302.19" width="185.81" height="5.67" rx="0.67"/><rect class="cls-14" x="206.17" y="256.47" width="49.83" height="5.67" rx="0.67"/><rect class="cls-14" x="262.17" y="256.47" width="49.83" height="5.67" rx="0.67"/><rect class="cls-16" x="150.17" y="273.22" width="161.83" height="20.17" rx="1.29"/><path class="cls-14" d="M397.15,241.13h14.36a1.41,1.41,0,0,0,1.42-1.42h0a1.41,1.41,0,0,0-1.42-1.41H397.15a1.41,1.41,0,0,0-1.41,1.41h0A1.41,1.41,0,0,0,397.15,241.13Z"/><circle class="cls-4" cx="362.62" cy="252.8" r="4.52"/><rect class="cls-14" x="371.76" y="249.9" width="37" height="5.67" rx="0.67"/><rect class="cls-18" x="358.1" y="263.15" width="50.66" height="5.67" rx="0.67"/><circle class="cls-4" cx="362.62" cy="288.38" r="4.52"/><rect class="cls-14" x="371.76" y="285.48" width="37" height="5.67" rx="0.67"/><rect class="cls-18" x="358.1" y="298.73" width="50.66" height="5.67" rx="0.67"/><path class="cls-16" d="M395.61,110.37l1,2a1.58,1.58,0,0,0,1.19.87l2.22.32a.48.48,0,0,1,.26.81l-1.61,1.56a1.59,1.59,0,0,0-.45,1.4l.38,2.21a.47.47,0,0,1-.69.5l-2-1a1.61,1.61,0,0,0-1.48,0l-2,1a.47.47,0,0,1-.69-.5l.38-2.21a1.59,1.59,0,0,0-.45-1.4l-1.61-1.56a.48.48,0,0,1,.26-.81l2.22-.32a1.58,1.58,0,0,0,1.19-.87l1-2A.48.48,0,0,1,395.61,110.37Z"/><path class="cls-23" d="M383.77,333.25l-2.09,1.8a.56.56,0,0,0,.37,1h8.21a2.2,2.2,0,0,0,2.19-2l.08-1h-8.75Z"/><path class="cls-23" d="M399.07,333l0,.56-1.66,1.66a.48.48,0,0,0,.34.82h8.81a2.2,2.2,0,0,0,2.19-2.27l0-.77Z"/><path class="cls-24" d="M406.94,278.32a91,91,0,0,1-22.1.84L383.78,333h8.75l3.78-47.55L399.07,333h9.68Z"/><path class="cls-25" d="M368.14,221.54a2.62,2.62,0,0,0-4.83,2l2.38,6.82a30.63,30.63,0,0,1,5.93-1.53Z"/><path class="cls-25" d="M392.66,237.32l1.39-6.44a4.55,4.55,0,0,1,5.68-3.42h0a4.54,4.54,0,0,1,3.18,5.52l-1.65,6.38a4.42,4.42,0,0,1-5.53,3.13h0A4.41,4.41,0,0,1,392.66,237.32Z"/><path class="cls-26" d="M395,233.22c-.19.75-.72,1.26-1.18,1.14s-.68-.82-.49-1.57.73-1.26,1.19-1.14S395.22,232.47,395,233.22Z"/><path class="cls-26" d="M395,233.22a13.85,13.85,0,0,1,3.17.63c.37.33.1,1.13.1,1.13"/><path class="cls-23" d="M417.34,266.65a15,15,0,0,0-1.23-6.77l-6.05-13.81a11.12,11.12,0,0,0-8.9-6.86l-13-1.65-11.69-.94a2.07,2.07,0,0,1-1.72-1.19l-3.15-6.61a30.63,30.63,0,0,0-5.93,1.53l3.19,9.19a5.83,5.83,0,0,0,3.85,3.67L385.47,247l-.63,32.17a91,91,0,0,0,22.1-.84l-.72-21.56,4.49,7.38.57,8.86H417Z"/><path class="cls-25" d="M411.28,273l.58,9.08a2.32,2.32,0,0,0,4.62.39L417,273Z"/><path class="cls-25" d="M164.67,89.65A40.35,40.35,0,0,1,158,93l2.56,5.29-4.84,10.9a3.1,3.1,0,0,0,5.65,2.56L166.35,101a9.15,9.15,0,0,0,0-7.66Z"/><path class="cls-25" d="M123.89,91.57l-.44,3.26a9.2,9.2,0,0,0,2.65,7.75l10.38,10.26a2.64,2.64,0,0,0,3.42.25h0a2.65,2.65,0,0,0,.5-3.79l-9.05-12.11,1.09-4A24,24,0,0,1,123.89,91.57Z"/><path class="cls-23" d="M162,83.74A15.26,15.26,0,0,0,150.51,75l-9.41-1.5a14.24,14.24,0,0,0-14.62,7,15.32,15.32,0,0,0-1.85,5.49l-.74,5.52a24,24,0,0,0,8.55,1.62l.21-.79a6.43,6.43,0,0,1,5.79-4.72l12.21-.79a6.42,6.42,0,0,1,6.19,3.61L158,93a40.35,40.35,0,0,0,6.63-3.34Z"/><path class="cls-25" d="M140.25,86.76l.56-4.67a4.79,4.79,0,0,1,5-4.21h0a4.8,4.8,0,0,1,4.49,5.27l-.48,4.69a4.79,4.79,0,0,1-6,4.14l-.08,0A4.77,4.77,0,0,1,140.25,86.76Z"/><path class="cls-27" d="M242.79,352.15c.7-.78,1.46-1.5,2.18-2.26l.39-.42c1.28-2.42,3.61-4.86,5.27-6.84a25.49,25.49,0,0,1,2.7-2.7H215.61c-1.59,0-3.17.32-3.54.71L198.8,354.92c-.7.75.56,1.37,2.84,1.37h37.7A43.49,43.49,0,0,1,242.79,352.15Z"/><g class="cls-28"><path class="cls-29" d="M242.79,352.15c.7-.78,1.46-1.5,2.18-2.26l.39-.42a18.85,18.85,0,0,1,1.58-2.42H215.18a4.17,4.17,0,0,0-2.53.6l-3.49,4.5c-.32.4.47.74,1.76.74h31.2Z"/><g class="cls-28"><path class="cls-18" d="M226.44,344c-.4.78-3.17,1.43-6.16,1.43s-4.92-.65-4.32-1.43,3.3-1.35,6.1-1.35S226.83,343.19,226.44,344Z"/><path class="cls-14" d="M250.26,343.07H232.91c-.42,0-.79.09-.83.2l-.52,1.33c-.05.12.27.21.7.21h16.5Z"/></g></g><path class="cls-30" d="M332.27,356.29H238.82c-2.27,0-3.54-.62-2.84-1.37l13.28-14.28c.36-.39,1.94-.71,3.54-.71h65.5c1.59,0,3.18.32,3.54.71l13.28,14.28C335.81,355.67,334.55,356.29,332.27,356.29Z"/><g class="cls-28"><path class="cls-29" d="M323,352.89H248.11c-1.29,0-2.08-.34-1.77-.74l3.49-4.5a4.2,4.2,0,0,1,2.54-.6h66.36a4.23,4.23,0,0,1,2.54.6l3.48,4.5C325.07,352.55,324.28,352.89,323,352.89Z"/><g class="cls-28"><path class="cls-17" d="M306.79,341.2a2.34,2.34,0,0,1,1.48.33c.11.18-.4.33-1.13.33a2.36,2.36,0,0,1-1.49-.33C305.56,341.35,306.07,341.2,306.79,341.2Z"/><path class="cls-17" d="M311.53,341.2a2.54,2.54,0,0,1,1.52.33c.13.18-.36.33-1.09.33a2.53,2.53,0,0,1-1.53-.33C310.32,341.35,310.81,341.2,311.53,341.2Z"/><path class="cls-17" d="M316.26,341.2a2.81,2.81,0,0,1,1.57.33c.14.18-.33.33-1.06.33a2.7,2.7,0,0,1-1.56-.33C315.07,341.35,315.55,341.2,316.26,341.2Z"/></g><g class="cls-28"><path class="cls-18" d="M263.63,344c-.4.78-3.17,1.43-6.17,1.43s-4.92-.65-4.32-1.43,3.3-1.35,6.11-1.35S264,343.19,263.63,344Z"/><path class="cls-14" d="M317.83,344.81H269.45c-.44,0-.75-.09-.71-.21l.52-1.33c0-.11.42-.2.84-.2h46.43a1.57,1.57,0,0,1,.91.2l1,1.33C318.55,344.72,318.27,344.81,317.83,344.81Z"/></g></g><path class="cls-12" d="M377.35,356.29H283.9c-2.27,0-3.54-.62-2.84-1.37l13.28-14.28c.36-.39,1.94-.71,3.54-.71h65.5c1.59,0,3.18.32,3.54.71l13.28,14.28C380.89,355.67,379.63,356.29,377.35,356.29Z"/><g class="cls-28"><path class="cls-29" d="M368.07,352.89H293.19c-1.29,0-2.08-.34-1.77-.74l3.49-4.5a4.2,4.2,0,0,1,2.54-.6h66.36a4.23,4.23,0,0,1,2.54.6l3.48,4.5C370.15,352.55,369.36,352.89,368.07,352.89Z"/><g class="cls-28"><path class="cls-17" d="M351.87,341.2a2.34,2.34,0,0,1,1.48.33c.11.18-.4.33-1.13.33a2.36,2.36,0,0,1-1.49-.33C350.64,341.35,351.15,341.2,351.87,341.2Z"/><path class="cls-17" d="M356.61,341.2a2.56,2.56,0,0,1,1.52.33c.13.18-.36.33-1.09.33a2.53,2.53,0,0,1-1.53-.33C355.4,341.35,355.89,341.2,356.61,341.2Z"/><path class="cls-17" d="M361.34,341.2a2.81,2.81,0,0,1,1.57.33c.14.18-.33.33-1.06.33a2.7,2.7,0,0,1-1.56-.33C360.15,341.35,360.63,341.2,361.34,341.2Z"/></g><g class="cls-28"><path class="cls-18" d="M308.71,344c-.4.78-3.17,1.43-6.17,1.43s-4.92-.65-4.32-1.43,3.3-1.35,6.11-1.35S309.1,343.19,308.71,344Z"/><path class="cls-14" d="M362.91,344.81H314.53c-.44,0-.75-.09-.71-.21l.52-1.33c0-.11.42-.2.84-.2h46.43a1.57,1.57,0,0,1,.91.2l1,1.33C363.63,344.72,363.35,344.81,362.91,344.81Z"/></g></g><rect class="cls-31" x="162.84" y="59.62" width="84.43" height="16.38" rx="4"/><path class="cls-29" d="M174.82,70.61a4.8,4.8,0,1,0-1.15,1l.91,1a.73.73,0,0,0,.57.26.75.75,0,0,0,.57-1.24ZM168,67.5a3.27,3.27,0,1,1,3.27,3.27A3.27,3.27,0,0,1,168,67.5Z"/><rect class="cls-29" x="184.29" y="64.98" width="49.83" height="5.67" rx="0.67"/><rect class="cls-32" x="148.27" y="45.61" width="84.43" height="16.38" rx="4"/><path class="cls-29" d="M160.25,56.6a4.71,4.71,0,0,0,1.19-3.11,4.77,4.77,0,1,0-4.77,4.77,4.68,4.68,0,0,0,2.43-.69l.91,1a.73.73,0,0,0,.57.26.78.78,0,0,0,.49-.18.74.74,0,0,0,.08-1.05Zm-6.85-3.11a3.27,3.27,0,1,1,3.27,3.27A3.27,3.27,0,0,1,153.4,53.49Z"/><rect class="cls-29" x="169.72" y="50.97" width="49.83" height="5.67" rx="0.67"/><rect class="cls-12" x="175.86" y="73.82" width="84.43" height="16.38" rx="4"/><path class="cls-14" d="M184.26,86.46A4.77,4.77,0,1,1,189,81.69,4.78,4.78,0,0,1,184.26,86.46Zm0-8a3.27,3.27,0,1,0,3.27,3.27A3.28,3.28,0,0,0,184.26,78.42Z"/><path class="cls-14" d="M188.17,87.09a.76.76,0,0,1-.57-.26l-1.34-1.56a.75.75,0,0,1,.08-1.06.76.76,0,0,1,1.06.08l1.34,1.56a.76.76,0,0,1-.08,1.06A.78.78,0,0,1,188.17,87.09Z"/><rect class="cls-29" x="197.31" y="79.17" width="49.83" height="5.67" rx="0.67"/><circle class="cls-33" cx="111.6" cy="349.97" r="5.57"/><path class="cls-34" d="M128.1,344.4a5.57,5.57,0,1,1-5.57,5.57A5.57,5.57,0,0,1,128.1,344.4Z"/><path class="cls-35" d="M144.61,344.4A5.57,5.57,0,1,1,139,350,5.57,5.57,0,0,1,144.61,344.4Z"/><path class="cls-16" d="M426,162.53l-.15-3.4,17.21-6.6V156a50.31,50.31,0,0,1-.59,7.67A38.52,38.52,0,0,1,426,162.53Z"/><path class="cls-12" d="M429.86,150.1h0l-.09-21.93,7.75,1.29a10.62,10.62,0,0,1,8.42,7.46L448,147.67a5.27,5.27,0,0,1-3.35,6.46l-9.28,4.69A16.45,16.45,0,0,1,429.86,150.1Z"/><path class="cls-25" d="M420.34,157.71l9.52-7.61a16.45,16.45,0,0,0,5.54,8.72L423.21,165a3.91,3.91,0,0,1-2.87-7.26Z"/><path class="cls-25" d="M437,132.53l-.58-4.8a4.93,4.93,0,0,0-5.17-4.33h0a4.93,4.93,0,0,0-4.62,5.43l.5,4.82a4.93,4.93,0,0,0,6.14,4.26l.09,0A4.92,4.92,0,0,0,437,132.53Z"/><path class="cls-36" d="M436.9,131.82a5.53,5.53,0,0,1-2.49-4.45s-4.94,1.89-7.82.68a3.09,3.09,0,0,1-.43-5.6,2.7,2.7,0,0,1,3.61,1,6.11,6.11,0,0,1,5.63,1.32C437.94,127.07,436.9,131.82,436.9,131.82Z"/><path class="cls-16" d="M429.86,150.1l7.52-5.32a.53.53,0,0,0-.45-.94L429.85,146Z"/><path class="cls-15" d="M52.28,305.37a5.58,5.58,0,0,0,.19-3.9L48,287.56s-2.71-7.88-2.71-9c0,0,18.89,4.43,19,5.82l.6,8.61c.31,4.56-1.2,10.46-3.75,15.6l-9.69,21.11a1,1,0,0,0,0,.53H41.48Z"/><path class="cls-23" d="M41.48,330.26h9.94a.83.83,0,0,0,.12.27l2.15,2.55c.55.65-.51,2-1.58,2l-10.44.11c-1.26,0-1.86-1-1.36-2.23Z"/><path class="cls-25" d="M63.48,238.64,65,233.93a4.26,4.26,0,0,1,5.12-2.8l.53.14a4.25,4.25,0,0,1,3,5.38l-1.49,4.85a4.27,4.27,0,0,1-5.94,2.59l-.58-.29A4.25,4.25,0,0,1,63.48,238.64Z"/><path class="cls-25" d="M73.69,244.83a26.44,26.44,0,0,1,2.9,3.67l4.48,6.82s9.86-10.64,11.66-10.91,4.39,2,3.64,3.92c-.58,1.51-6,9.28-12.28,15.59a4.55,4.55,0,0,1-5.83.54l-7.45-9.18-1.14,1.78C68.91,252.36,70.08,247,73.69,244.83Z"/><path class="cls-23" d="M74.39,330.3l3.31,2.54a1.13,1.13,0,0,1-.68,2l-10.44.1a2.34,2.34,0,0,1-2.37-2.21l.06-2.49H74.35Z"/><path class="cls-25" d="M63.66,303.33,52.39,288.62a110,110,0,0,0,13.79-4.13C68.35,288.49,71,293,71,293a31.9,31.9,0,0,1,3.26,15.53l-.25,21a1.11,1.11,0,0,0,.39.75H64.27l.53-23.42A5.55,5.55,0,0,0,63.66,303.33Z"/><path class="cls-4" d="M64.51,239.72a12.21,12.21,0,0,1,4.87,1.64,20,20,0,0,1,4.31,3.47c-3.61,2.2-4.78,7.53-4,12.23l-.66,1A34.77,34.77,0,0,0,64.82,267a29.18,29.18,0,0,1-14-5C54.29,252.72,56.49,240.27,64.51,239.72Z"/><path class="cls-3" d="M44.7,270.66a15.37,15.37,0,0,1,5.21-6.37c.32-.73.62-1.51.92-2.3a29.18,29.18,0,0,0,14,5,34.69,34.69,0,0,0-1.53,10.83c0,.36,0,.57,0,.57,0,.64,1.35,3.25,2.88,6.08a110,110,0,0,1-13.79,4.13l-.83-1.09-4.85-5.87C44,278.44,43,274.48,44.7,270.66Z"/><path class="cls-4" d="M70.19,291.64s-9.94,9.35-28.77,7.23c0,0,4.34-11.2,2.45-21.61-1.46-8.06,6-13,6-13s4.84,4.83,14,6.18a17.72,17.72,0,0,0,2.54,11.62C68.7,285.47,70.19,291.64,70.19,291.64Z"/><path class="cls-23" d="M71.61,236.08s2.5,2.17,3.52.44-.06-6-4.91-6.55c-4.5-.49-6.29,2.95-8.16,6.11-3.08,5.21-13.72,8.43-13.41,15.4.48,10.69,13.41,9.53,15.51,2.94,1.62-5.07-.69-11.15,1.45-13S69.88,241.31,71.61,236.08Z"/><path class="cls-37" d="M140.54,84.31s-2.6-5.44-.33-7.39,3.42,0,6.86-2.45c5.43-3.83,13.37,4.27,3.26,8.68,0,0-4.35,1.54-6.85-1.46A3.78,3.78,0,0,1,140.54,84.31Z"/></g></g></g></svg>